<svg xmlns="http://www.w3.org/2000/svg" width="135" height="42" fill="none" viewBox="0 0 135 42"><g clip-path="url(#a)"><path fill="#021228" d="M102.016 38.291v-11.08c0-1.013-.32-1.827-.96-2.44-.613-.64-1.4-.96-2.36-.96-.666 0-1.253.147-1.76.44-.511.271-.93.69-1.2 1.2-.293.507-.44 1.093-.44 1.76l-2.36-1.16c0-1.52.334-2.853 1-4a6.747 6.747 0 0 1 2.76-2.64c1.2-.64 2.547-.96 4.04-.96 1.44 0 2.707.347 3.8 1.04 1.12.667 2 1.56 2.64 2.68.64 1.12.971 2.39.96 3.68v12.44h-6.12Zm-12.84 0v-19.44h6.12v19.44h-6.12Zm-12.314.44c-2.106 0-3.986-.427-5.64-1.28-1.626-.88-2.906-2.093-3.84-3.64-.933-1.547-1.4-3.293-1.4-5.24s.454-3.68 1.36-5.2a10.051 10.051 0 0 1 3.76-3.64c1.573-.88 3.347-1.32 5.32-1.32 1.92 0 3.614.413 5.08 1.24a8.885 8.885 0 0 1 3.44 3.44c.854 1.467 1.28 3.147 1.28 5.04 0 .347-.026.72-.08 1.12a10 10 0 0 1-.2 1.32l-16.76.04v-4.2l14.16-.04-2.64 1.76c-.026-1.12-.2-2.04-.52-2.76-.32-.747-.8-1.307-1.44-1.68-.613-.4-1.373-.6-2.28-.6-.96 0-1.8.227-2.52.68-.693.427-1.24 1.04-1.64 1.84-.373.8-.56 1.773-.56 2.92s.2 2.133.6 2.96a4.786 4.786 0 0 0 1.76 1.88c.773.427 1.68.64 2.72.64.96 0 1.827-.16 2.6-.48a5.929 5.929 0 0 0 2.04-1.52l3.36 3.36a9.07 9.07 0 0 1-3.48 2.52c-1.36.56-2.853.84-4.48.84Zm-24.417-.44-8.24-19.44h6.6l5.6 16.2h-2.88l5.6-16.2h6.48l-8.24 19.44h-4.92Zm-18.122.44c-2.106 0-3.986-.427-5.64-1.28-1.627-.88-2.907-2.093-3.84-3.64-.933-1.547-1.4-3.293-1.4-5.24s.453-3.68 1.36-5.2a10.053 10.053 0 0 1 3.76-3.64c1.574-.88 3.347-1.32 5.32-1.32 1.92 0 3.613.413 5.08 1.24a8.885 8.885 0 0 1 3.44 3.44c.854 1.467 1.28 3.147 1.28 5.04 0 .347-.026.72-.08 1.12a9.966 9.966 0 0 1-.2 1.32l-16.76.04v-4.2l14.16-.04-2.64 1.76c-.026-1.12-.2-2.04-.52-2.76-.32-.747-.8-1.307-1.44-1.68-.613-.4-1.373-.6-2.28-.6-.96 0-1.8.227-2.52.68-.693.427-1.24 1.04-1.64 1.84-.373.8-.56 1.773-.56 2.92s.2 2.133.6 2.96a4.786 4.786 0 0 0 1.76 1.88c.774.427 1.68.64 2.72.64.96 0 1.827-.16 2.6-.48a5.926 5.926 0 0 0 2.04-1.52l3.36 3.36a9.07 9.07 0 0 1-3.48 2.52c-1.36.56-2.853.84-4.48.84Zm-23.763 0c-2.32 0-4.32-.373-6-1.12-1.653-.773-3.173-1.933-4.56-3.48l4.08-4.04c.907 1.04 1.907 1.853 3 2.44 1.12.56 2.413.84 3.88.84 1.333 0 2.36-.24 3.08-.72.747-.48 1.12-1.147 1.12-2 0-.773-.24-1.4-.72-1.88s-1.12-.893-1.92-1.24c-.773-.347-1.64-.68-2.6-1-.933-.32-1.867-.68-2.8-1.08-.933-.427-1.8-.947-2.6-1.56a7.438 7.438 0 0 1-1.88-2.36c-.48-.96-.72-2.16-.72-3.6 0-1.733.413-3.227 1.24-4.48.853-1.253 2.027-2.2 3.52-2.84 1.493-.667 3.213-1 5.16-1 1.973 0 3.773.347 5.4 1.04 1.653.693 3.013 1.64 4.08 2.84l-4.08 4.04c-.853-.88-1.72-1.533-2.6-1.96-.853-.427-1.827-.64-2.92-.64s-1.96.213-2.6.64c-.64.4-.96.987-.96 1.76 0 .72.24 1.307.72 1.76.48.427 1.107.8 1.88 1.12.8.32 1.667.64 2.6.96.96.32 1.907.693 2.84 1.12.933.427 1.787.973 2.56 1.64.8.64 1.44 1.467 1.92 2.48.48.987.72 2.213.72 3.68 0 2.693-.96 4.813-2.88 6.36-1.92 1.52-4.573 2.28-7.96 2.28Z"></path><path fill="url(#b)" d="m115.36 38.29 12.35-31.2h6.7l-12 31.2h-7.05Zm-4.85-29.25v-5.9h23.9v3.95l-2.55 1.95h-21.35Z"></path><path fill="#2C74FF" d="M100.427 12.461c-.86 0-1.626-.181-2.295-.544a4.315 4.315 0 0 1-1.598-1.53c-.385-.646-.578-1.383-.578-2.21 0-.816.187-1.541.561-2.176a4.22 4.22 0 0 1 1.564-1.53 4.256 4.256 0 0 1 2.193-.578c.793 0 1.49.181 2.091.544.604.343 1.099.85 1.428 1.462.351.612.527 1.309.527 2.091 0 .147-.011.3-.034.459-.011.147-.04.317-.085.51l-6.902.017V7.31l5.865-.017-.901.697c-.023-.487-.113-.895-.272-1.224a1.58 1.58 0 0 0-.663-.748c-.283-.181-.635-.272-1.054-.272-.442 0-.827.102-1.156.306a1.95 1.95 0 0 0-.765.833c-.17.351-.255.77-.255 1.258 0 .499.09.935.272 1.309.193.363.465.646.816.85.351.193.76.289 1.224.289.419 0 .799-.068 1.139-.204.34-.147.635-.363.884-.646l1.309 1.309a3.787 3.787 0 0 1-1.462 1.054 4.736 4.736 0 0 1-1.853.357Zm-7.947-.17V7.582c0-.487-.154-.884-.46-1.19-.306-.306-.702-.459-1.19-.459-.317 0-.6.068-.85.204-.25.136-.447.329-.595.578-.136.25-.204.538-.204.867l-.867-.442c0-.646.136-1.207.408-1.683a2.93 2.93 0 0 1 1.122-1.139c.488-.272 1.043-.408 1.666-.408.624 0 1.173.136 1.65.408.476.261.87.65 1.138 1.122.272.476.408 1.026.408 1.649v5.202H92.48Zm-5.526 0V0h2.227v12.291h-2.227Zm-5.4 0V.663h2.227v11.628h-2.227Zm-1.92-6.256V4.08h6.068v1.955h-6.069Z"></path></g><defs><linearGradient id="b" x1="120.5" x2="141.061" y1="7" y2="37.758" gradientUnits="userSpaceOnUse"><stop stop-color="#2C74FF"></stop><stop offset="1" stop-color="#01C2CE"></stop></linearGradient><clipPath id="a"><path fill="#fff" d="M0 0h135v42H0z"></path></clipPath></defs></svg>